<svg width="40" height="40" viewBox="0 0 40 40" fill="none" xmlns="http://www.w3.org/2000/svg">
<path d="M27.5644 0C34.2417 0 39.6377 2.13992 39.7117 7.57971V37.9385C39.7117 38.2785 39.6131 38.6185 39.416 38.9185C39.0957 39.3985 38.5536 39.7585 37.8883 39.9185C37.2477 40.0784 36.5332 39.9985 35.9418 39.7185L19.9755 33.2387L3.98449 39.7185C3.61736 39.8765 3.19603 39.9785 2.77716 39.9785C1.39735 39.9785 0.288574 39.0585 0.288574 37.9385V7.57971C0.288574 2.13992 5.70925 0 12.3619 0H27.5644ZM29.2399 12.0795H10.6864C9.62692 12.0795 8.76453 12.7795 8.76453 13.6595C8.76453 14.5374 9.62692 15.2394 10.6864 15.2394H29.2399C30.2994 15.2394 31.1618 14.5374 31.1618 13.6595C31.1618 12.7795 30.2994 12.0795 29.2399 12.0795Z" fill="black"/>
</svg>
