<svg width="40" height="40" viewBox="0 0 40 40" fill="none" xmlns="http://www.w3.org/2000/svg">
<path d="M29.3133 0C36.1778 0 40 3.56 40 9.66V30.32C40 36.52 36.1778 40 29.3133 40H10.6889C3.93333 40 0 36.52 0 30.32V9.66C0 3.56 3.93333 0 10.6889 0H29.3133ZM11.2889 27.48C10.6222 27.42 9.97778 27.7 9.62222 28.22C9.26667 28.72 9.26667 29.38 9.62222 29.9C9.97778 30.4 10.6222 30.7 11.2889 30.62H28.7111C29.5978 30.54 30.2667 29.858 30.2667 29.06C30.2667 28.24 29.5978 27.56 28.7111 27.48H11.2889ZM28.7111 18.358H11.2889C10.3311 18.358 9.55556 19.06 9.55556 19.92C9.55556 20.78 10.3311 21.48 11.2889 21.48H28.7111C29.6667 21.48 30.4444 20.78 30.4444 19.92C30.4444 19.06 29.6667 18.358 28.7111 18.358ZM17.9311 9.3H11.2889V9.32C10.3311 9.32 9.55556 10.02 9.55556 10.88C9.55556 11.74 10.3311 12.44 11.2889 12.44H17.9311C18.8889 12.44 19.6667 11.74 19.6667 10.858C19.6667 10 18.8889 9.3 17.9311 9.3Z" fill="black"/>
</svg>
