<svg width="40" height="40" viewBox="0 0 40 40" fill="none" xmlns="http://www.w3.org/2000/svg">
<path d="M29.7356 0C32.379 0 34.9217 1.17778 36.7924 3.29111C38.665 5.4 39.7117 8.24444 39.7117 11.2222V28.7778C39.7117 34.9778 35.2371 40 29.7356 40H10.2626C4.76112 40 0.288574 34.9778 0.288574 28.7778V11.2222C0.288574 5.02222 4.74141 0 10.2626 0H29.7356ZM31.965 11.5556C31.5511 11.5311 31.1568 11.6889 30.8592 12L21.9713 20C20.828 21.0689 19.19 21.0689 18.029 20L9.15877 12C8.54574 11.4889 7.69814 11.5556 7.18761 12.1556C6.6554 12.7556 6.59627 13.7111 7.04766 14.3778L7.30588 14.6667L16.2746 22.5556C17.3785 23.5333 18.7169 24.0667 20.1184 24.0667C21.5159 24.0667 22.878 23.5333 23.9799 22.5556L32.8717 14.5333L33.0294 14.3556C33.5005 13.7111 33.5005 12.7778 33.0078 12.1333C32.7338 11.8022 32.3573 11.6 31.965 11.5556Z" fill="black"/>
</svg>
