<svg width="40" height="40" viewBox="0 0 40 40" fill="none" xmlns="http://www.w3.org/2000/svg">
<path d="M21.4883 0C23.0574 0 24.4781 0.84 25.2627 2.08C25.6444 2.68 25.8988 3.42 25.8352 4.2C25.7928 4.8 25.9837 5.4 26.3229 5.96C27.4044 7.66 29.8005 8.3 31.6665 7.34C33.7657 6.18 36.4163 6.88 37.625 8.86L39.0457 11.22C40.2755 13.2 39.597 15.74 37.4765 16.88C35.6741 17.9 35.038 20.16 36.1194 21.88C36.4587 22.42 36.8404 22.88 37.4341 23.16C38.1763 23.54 38.7488 24.14 39.1517 24.74C39.9363 25.98 39.8727 27.5 39.1093 28.84L37.625 31.24C36.8404 32.52 35.3773 33.32 33.8718 33.32C33.1296 33.32 32.3026 33.12 31.6241 32.72C31.0728 32.38 30.4366 32.26 29.7581 32.26C27.6588 32.26 25.8988 33.92 25.8352 35.9C25.8352 38.2 23.8844 40 21.4459 40H18.5621C16.1023 40 14.1515 38.2 14.1515 35.9C14.1091 33.92 12.3491 32.26 10.2499 32.26C9.5501 32.26 8.91397 32.38 8.38385 32.72C7.70531 33.12 6.85712 33.32 6.13617 33.32C4.60944 33.32 3.14632 32.52 2.36175 31.24L0.898636 28.84C0.114066 27.54 0.0716569 25.98 0.856226 24.74C1.1955 24.14 1.83164 23.54 2.55259 23.16C3.14632 22.88 3.528 22.42 3.88848 21.88C4.94871 20.16 4.31257 17.9 2.51018 16.88C0.41093 15.74 -0.267616 13.2 0.941045 11.22L2.36175 8.86C3.59162 6.88 6.22098 6.18 8.34144 7.34C10.1862 8.3 12.5824 7.66 13.6638 5.96C14.0031 5.4 14.1939 4.8 14.1515 4.2C14.1091 3.42 14.3423 2.68 14.7452 2.08C15.5298 0.84 16.9505 0.04 18.4984 0H21.4883ZM20.0252 14.36C16.696 14.36 14.0031 16.88 14.0031 20.02C14.0031 23.16 16.696 25.66 20.0252 25.66C23.3543 25.66 25.9837 23.16 25.9837 20.02C25.9837 16.88 23.3543 14.36 20.0252 14.36Z" fill="black"/>
</svg>
