<svg width="40" height="40" viewBox="0 0 40 40" fill="none" xmlns="http://www.w3.org/2000/svg">
<path d="M39.3369 21.6305C39.4789 21.7115 39.5073 21.8832 39.513 21.9487L39.5144 21.9748L39.3567 32.3038C39.3567 36.4241 36.2103 39.784 32.2484 39.99L31.8625 40H8.11797C4.1059 40 0.834148 36.7688 0.633582 32.7001L0.623838 32.3038L0.485788 21.9748C0.485788 21.9748 0.485788 21.7317 0.663281 21.6305C0.821052 21.5292 1.01827 21.6507 1.03799 21.671C5.02171 24.3849 9.81401 26.1874 14.843 26.9368C15.5529 27.038 16.2629 26.5722 16.4601 25.8431C16.8669 24.2862 18.123 23.2276 19.6596 23.1014L19.9705 23.0887H20.0297C21.706 23.0887 23.1062 24.1824 23.5401 25.8431C23.7373 26.5722 24.4473 27.038 25.1573 26.9368C30.1862 26.1874 34.9785 24.3849 38.9622 21.671C38.9622 21.671 39.0017 21.6507 39.0411 21.6305C39.12 21.59 39.2383 21.5697 39.3369 21.6305ZM19.9903 25.9849C19.2491 25.9849 18.6239 26.5635 18.5248 27.2995L18.5111 27.5039V30.1165C18.5111 30.9671 19.1817 31.6355 19.9903 31.6355C20.7495 31.6355 21.3597 31.0739 21.4561 30.3251L21.4694 30.1165V27.5039C21.4694 26.6735 20.8186 25.9849 19.9903 25.9849ZM22.5343 0C25.4925 0 27.9183 2.2886 28.293 5.22529H32.1978C36.3393 5.22529 39.7117 8.68856 39.7117 12.9417C39.7117 12.9417 39.5933 14.7422 39.5539 17.2495C39.5499 17.448 39.4553 17.6424 39.2995 17.7599C38.3509 18.4708 37.4831 19.0581 37.4042 19.0986C34.1305 21.3265 30.3262 22.8941 26.2735 23.6738C26.0092 23.7265 25.7489 23.5867 25.6148 23.3477C24.4788 21.3508 22.3568 20.0505 19.9903 20.0505C17.6395 20.0505 15.4977 21.3366 14.3282 23.3356C14.1922 23.5705 13.9358 23.7062 13.6735 23.6556C9.65427 22.8738 5.85001 21.3082 2.59598 19.1189L0.702724 17.7822C0.544952 17.6809 0.446345 17.4986 0.446345 17.2961C0.387181 16.2632 0.288574 12.9417 0.288574 12.9417C0.288574 8.68856 3.66093 5.22529 7.80243 5.22529H11.6875C12.0623 2.2886 14.488 0 17.4462 0H22.5343ZM22.5343 3.03796H17.4462C16.1249 3.03796 15.0007 3.9696 14.6852 5.22529H25.2953C24.9798 3.9696 23.8556 3.03796 22.5343 3.03796Z" fill="black"/>
</svg>
